<?xml version="1.0" encoding="UTF-8" standalone="no"?>
<!-- Created with Inkscape (http://www.inkscape.org/) -->

<svg
   width="256"
   height="224"
   viewBox="0 0 256 224"
   version="1.1"
   id="svg1"
   inkscape:version="1.4 (86a8ad7, 2024-10-11)"
   sodipodi:docname="Railroad.svg"
   inkscape:export-filename="Railroad.png"
   inkscape:export-xdpi="96"
   inkscape:export-ydpi="96"
   xmlns:inkscape="http://www.inkscape.org/namespaces/inkscape"
   xmlns:sodipodi="http://sodipodi.sourceforge.net/DTD/sodipodi-0.dtd"
   xmlns="http://www.w3.org/2000/svg"
   xmlns:svg="http://www.w3.org/2000/svg">
  <sodipodi:namedview
     id="namedview1"
     pagecolor="#ffffff"
     bordercolor="#000000"
     borderopacity="0.4"
     inkscape:showpageshadow="0"
     inkscape:pageopacity="0"
     inkscape:pagecheckerboard="true"
     inkscape:deskcolor="#f1f1f1"
     inkscape:document-units="px"
     labelstyle="default"
     inkscape:zoom="7.8359375"
     inkscape:cx="138.52841"
     inkscape:cy="118.62014"
     inkscape:window-width="1920"
     inkscape:window-height="991"
     inkscape:window-x="-9"
     inkscape:window-y="-9"
     inkscape:window-maximized="1"
     inkscape:current-layer="layer1"
     showguides="true">
    <sodipodi:guide
       position="128,112"
       orientation="-1,0"
       id="guide1"
       inkscape:locked="false"
       inkscape:label=""
       inkscape:color="rgb(0,134,229)" />
    <sodipodi:guide
       position="128,112"
       orientation="0,1"
       id="guide2"
       inkscape:label=""
       inkscape:locked="false"
       inkscape:color="rgb(0,134,229)" />
  </sodipodi:namedview>
  <defs
     id="defs1" />
  <g
     inkscape:label="Layer 1"
     inkscape:groupmode="layer"
     id="layer1">
    <path
       id="rect2"
       style="fill:#ffffff;fill-opacity:1;stroke:none;stroke-width:24.0001;paint-order:stroke fill markers"
       d="m 128,99.99914 v 24 h 24 c 6.648,0 12,-5.352 12,-12 0,-6.648 -5.352,-12 -12,-12 z"
       sodipodi:nodetypes="ccsssc" />
    <path
       id="rect3-4"
       style="fill:#000000;fill-opacity:1;stroke:none;stroke-width:24.0001;paint-order:stroke fill markers"
       d="m 135,100 c -1.108,0 -2,0.892 -2,2 v 2 h -5 v 4 h 5 v 8 h -5 v 4 h 5 v 2 c 0,1.108 0.892,2 2,2 1.108,0 2,-0.892 2,-2 v -2 h 10.01172 v 2 c 0,1.108 0.892,2 2,2 1.108,0 2,-0.892 2,-2 v -2 H 152 c 4.432,0 8,-3.568 8,-8 0,-4.432 -3.568,-8 -8,-8 h -0.98828 v -2 c 0,-1.108 -0.892,-2 -2,-2 -1.108,0 -2,0.892 -2,2 v 2 H 137 v -2 c 0,-1.108 -0.892,-2 -2,-2 z m 2,8 h 10.01172 v 8 H 137 Z m 14.01172,0 h 1.0039 c 2.21601,0 4,1.784 4,4 0,2.216 -1.78399,4 -4,4 h -1.0039 z" />
  </g>
</svg>
